<?xml version="1.0" encoding="UTF-8"?>
<svg version="1.1" xmlns="http://www.w3.org/2000/svg" width="720" height="1280">
<path d="M0 0 C237.6 0 475.2 0 720 0 C720 422.4 720 844.8 720 1280 C482.4 1280 244.8 1280 0 1280 C0 857.6 0 435.2 0 0 Z " fill="#FEFEFE" transform="translate(0,0)"/>
<path d="M0 0 C2.74787185 2.74787185 2.73190438 5.58904639 3.21875 9.2890625 C3.37386047 10.39318985 3.37386047 10.39318985 3.53210449 11.5196228 C3.86260667 13.88706768 4.18132869 16.25593675 4.5 18.625 C4.71409878 20.1667703 4.92893509 21.70843838 5.14453125 23.25 C9.57961378 55.16055735 9.57961378 55.16055735 9 62 C6.9944222 64.56431649 6.32103144 64.95318291 3 65.4375 C0 65 0 65 -1.61669922 63.421875 C-3.44829999 60.21511897 -3.71764572 57.47957663 -4.1328125 53.8125 C-4.256064 52.76497559 -4.256064 52.76497559 -4.38180542 51.69628906 C-4.64120167 49.46535087 -4.88312283 47.23289803 -5.125 45 C-5.29447404 43.52982083 -5.46503698 42.05976675 -5.63671875 40.58984375 C-6.58009341 32.40522686 -7.38061507 24.21624996 -8 16 C-17.50709761 21.72821689 -26.94911403 27.50970901 -36.13891602 33.73779297 C-45.41434107 40.02296702 -45.41434107 40.02296702 -49.1875 39.875 C-52 39 -52 39 -54 36 C-54.03125 33.10546875 -54.03125 33.10546875 -53 30 C-50.82600855 28.13439779 -48.92523878 26.76508365 -46.5 25.3125 C-45.50045288 24.68130249 -45.50045288 24.68130249 -44.48071289 24.03735352 C-43.05828548 23.13968269 -41.63111319 22.24949406 -40.19970703 21.36621094 C-37.29688422 19.56330345 -34.43696148 17.69797467 -31.57568359 15.83007812 C-29.44365014 14.44150553 -27.30264512 13.06768338 -25.16015625 11.6953125 C-22.42921108 9.93984089 -19.73342982 8.14443639 -17.05859375 6.3046875 C-16.43605713 5.88388916 -15.81352051 5.46309082 -15.17211914 5.02954102 C-13.49050301 3.89072069 -11.81906656 2.73690921 -10.1484375 1.58203125 C-6.45727507 -0.27270918 -4.08002665 -0.45937346 0 0 Z " fill="#D6D5D5" transform="translate(364,891)"/>
<path d="M0 0 C3.1132593 0.90803396 4.02823663 1.41607455 6 3.875 C6.54385376 5.7653656 6.54385376 5.7653656 6.78369141 7.91577148 C6.88034088 8.72348495 6.97699036 9.53119843 7.0765686 10.36338806 C7.16731659 11.23218094 7.25806458 12.10097382 7.3515625 12.99609375 C7.45592621 13.89240005 7.56028992 14.78870636 7.66781616 15.71217346 C7.99913958 18.57770492 8.3126454 21.44484452 8.625 24.3125 C8.94806247 27.17607383 9.27475978 30.03919991 9.60360718 32.90211487 C9.80700667 34.68349493 10.00639557 36.46533855 10.20132446 38.24766541 C10.29166962 39.05853104 10.38201477 39.86939667 10.47509766 40.70483398 C10.55265289 41.41526352 10.63020813 42.12569305 10.71011353 42.85765076 C11.00537921 44.91243447 11.46181965 46.87135127 12 48.875 C13.96524144 47.63936136 15.92985726 46.40274317 17.89379883 45.16503906 C19.60232374 44.08866345 21.31181171 43.01381511 23.0222168 41.94042969 C27.33366554 39.22630079 31.614985 36.48210276 35.8359375 33.62890625 C36.59076416 33.12335205 37.34559082 32.61779785 38.12329102 32.09692383 C39.55333347 31.13542879 40.97611432 30.16301964 42.39038086 29.1784668 C46.35539649 26.52743605 49.05840686 25.08668086 54 25.875 C56 27.875 56 27.875 56.8125 31 C55.67862457 36.40771359 53.12853998 37.60427316 48.64453125 40.5859375 C47.43093879 41.35094695 46.21598602 42.11380086 45 42.875 C43.54517729 43.80406828 42.0907747 44.73379465 40.63671875 45.6640625 C37.4194923 47.71367148 34.18830878 49.73906187 30.94921875 51.75390625 C27.66035037 53.80872136 24.41967768 55.9178485 21.20703125 58.08984375 C20.44600098 58.59990967 19.6849707 59.10997559 18.90087891 59.63549805 C17.46205423 60.60376072 16.03025392 61.58257346 14.60693359 62.57348633 C11.53955635 64.62410593 9.37918576 65.80483039 5.70703125 66.484375 C3 65.875 3 65.875 1.43115234 64.01757812 C-0.64486557 59.45897994 -1.04270647 54.9322963 -1.60546875 49.984375 C-1.73440018 48.9251886 -1.8633316 47.8660022 -1.99617004 46.77471924 C-2.26627282 44.53618647 -2.5306847 42.29696068 -2.78979492 40.05712891 C-3.18464212 36.64966304 -3.59760103 33.24477635 -4.01367188 29.83984375 C-4.27451326 27.65898256 -4.53431263 25.47799644 -4.79296875 23.296875 C-4.91480026 22.28719666 -5.03663177 21.27751831 -5.16215515 20.23724365 C-6.99956502 4.19590911 -6.99956502 4.19590911 -4.67106628 1.11883545 C-3 -0.125 -3 -0.125 0 0 Z " fill="#D6D5D5" transform="translate(367,313.125)"/>
<path d="M0 0 C0.96615234 -0.00386719 1.93230469 -0.00773437 2.92773438 -0.01171875 C4.43110352 0.00568359 4.43110352 0.00568359 5.96484375 0.0234375 C6.97095703 0.01183594 7.97707031 0.00023437 9.01367188 -0.01171875 C9.97853516 -0.00785156 10.94339844 -0.00398438 11.9375 0 C12.81801025 0.00338379 13.69852051 0.00676758 14.60571289 0.01025391 C17.37024466 0.47752355 18.26366061 1.15262704 19.90234375 3.3984375 C20.54141243 8.51098691 20.54141243 8.51098691 18.70507812 11.06103516 C16.27899963 12.8608805 14.68678896 12.78593345 11.68359375 12.796875 C10.66910156 12.80074219 9.65460938 12.80460937 8.609375 12.80859375 C7.55105469 12.79699219 6.49273437 12.78539062 5.40234375 12.7734375 C4.34402344 12.78503906 3.28570312 12.79664063 2.1953125 12.80859375 C0.67357422 12.80279297 0.67357422 12.80279297 -0.87890625 12.796875 C-1.80767578 12.79349121 -2.73644531 12.79010742 -3.69335938 12.78662109 C-6.53252575 12.32822604 -7.42845599 11.70885493 -9.09765625 9.3984375 C-9.53515625 6.3984375 -9.53515625 6.3984375 -9.09765625 3.3984375 C-6.16605345 0.54599929 -4.02779003 0.01545894 0 0 Z " fill="#D7D6D6" transform="translate(196.09765625,1216.6015625)"/>
<path d="M0 0 C2 2 2 2 2 5.4375 C1 9 1 9 -1.3125 10.75 C-16.62673879 15.94126739 -16.62673879 15.94126739 -24 15 C-25.9375 13.875 -25.9375 13.875 -27 12 C-27.63422053 6.92623574 -27.63422053 6.92623574 -25.9140625 4.4140625 C-23.12509438 2.35364115 -20.38680473 2.01708173 -17 1.375 C-4.87301587 -0.97460317 -4.87301587 -0.97460317 0 0 Z " fill="#D7D6D6" transform="translate(648,251)"/>
<path d="M0 0 C2.56959222 0.82420883 3.71517655 1.53513079 5.27734375 3.73046875 C4.83289931 10.17491319 4.83289931 10.17491319 3.27734375 11.73046875 C-18.06544534 12.73972442 -18.06544534 12.73972442 -22.46875 9.41015625 C-24.55699337 6.6128209 -24.08784334 4.07801709 -23.72265625 0.73046875 C-17.14941322 -3.65169327 -7.44284646 -1.27872692 0 0 Z " fill="#D7D6D6" transform="translate(538.72265625,246.26953125)"/>
<path d="M0 0 C1.875 1.4375 1.875 1.4375 3 4 C3.20152982 10.24742439 1.36711832 14.88922843 -1.375 20.4375 C-1.67905762 21.05286621 -1.98311523 21.66823242 -2.29638672 22.30224609 C-3.94194939 25.46246443 -4.97494131 26.98329421 -8 29 C-11.32240324 28.6758631 -12.60776303 28.39223697 -15 26 C-15.72445158 21.04958084 -14.16986904 17.7283371 -12.078125 13.3828125 C-10.67707652 10.28629231 -9.73574178 7.11282976 -8.80859375 3.84765625 C-7.06585787 -0.13453733 -3.89910539 -0.58486581 0 0 Z " fill="#D7D6D6" transform="translate(681,212)"/>
<path d="M0 0 C4.24126682 0.89494621 8.11070608 2.18714556 12.14453125 3.74609375 C12.85931641 4.01099609 13.57410156 4.27589844 14.31054688 4.54882812 C19.56994443 6.54650693 19.56994443 6.54650693 21.83203125 8.80859375 C21.64453125 12.30859375 21.64453125 12.30859375 20.83203125 15.80859375 C17.83203125 17.80859375 17.83203125 17.80859375 15.19140625 17.61328125 C11.05641736 16.62280717 7.09075538 15.34317942 3.08203125 13.93359375 C1.93154297 13.54880859 1.93154297 13.54880859 0.7578125 13.15625 C-0.34240234 12.77146484 -0.34240234 12.77146484 -1.46484375 12.37890625 C-2.12838867 12.14961426 -2.79193359 11.92032227 -3.47558594 11.68408203 C-5.16796875 10.80859375 -5.16796875 10.80859375 -7.16796875 7.80859375 C-6.98046875 4.74609375 -6.98046875 4.74609375 -6.16796875 1.80859375 C-3.16796875 -0.19140625 -3.16796875 -0.19140625 0 0 Z " fill="#D7D6D6" transform="translate(577.16796875,46.19140625)"/>
<path d="M0 0 C3 1 3 1 4 2 C4.3828125 5.23828125 4.3828125 5.23828125 4 9 C1.8046875 11.73046875 1.8046875 11.73046875 -1.125 14.1875 C-2.07632812 15.00605469 -3.02765625 15.82460938 -4.0078125 16.66796875 C-12.1731336 23.03180255 -12.1731336 23.03180255 -16.25 22.875 C-19 22 -19 22 -21 20 C-21.625 17.3125 -21.625 17.3125 -21 14 C-18.64223313 11.27324574 -15.84425203 9.19697209 -13 7 C-12.24460937 6.32839844 -11.48921875 5.65679688 -10.7109375 4.96484375 C-4.96632704 0 -4.96632704 0 0 0 Z " fill="#D6D6D6" transform="translate(313,980)"/>
<path d="M0 0 C3.0625 0.3125 3.0625 0.3125 5 1.375 C6.65093659 4.38553143 5.90912959 7.12788481 5.0625 10.3125 C3.73378856 13.40259957 2.14151124 16.31639568 0.5 19.25 C0.07525391 20.02923828 -0.34949219 20.80847656 -0.78710938 21.61132812 C-1.82762854 23.51699805 -2.88124418 25.41550722 -3.9375 27.3125 C-10.6875 27.4453125 -10.6875 27.4453125 -12.9375 26.25 C-14.55835932 23.10958508 -13.64866328 20.71371568 -12.9375 17.3125 C-11.81388187 14.59623674 -10.43941033 12.06036705 -9 9.5 C-8.63970703 8.83291016 -8.27941406 8.16582031 -7.90820312 7.47851562 C-4.04635401 0.43046319 -4.04635401 0.43046319 0 0 Z " fill="#D7D6D6" transform="translate(399.9375,305.6875)"/>
<path d="M0 0 C2.67423783 1.58473353 3.09920683 3.26629201 4.1875 6.1875 C5.16275563 10.55566179 5.21281008 14.91865644 5.25 19.375 C5.25926514 20.08938232 5.26853027 20.80376465 5.27807617 21.53979492 C5.24634885 26.75365115 5.24634885 26.75365115 3 29 C-0.4375 29.4375 -0.4375 29.4375 -4 29 C-8.20776666 24.93249223 -7.76286097 18.51168603 -8 13 C-8.05285156 11.98035156 -8.10570312 10.96070313 -8.16015625 9.91015625 C-8.33158254 4.23818213 -8.33158254 4.23818213 -8 2 C-4.76746204 -0.15502531 -3.74849077 -0.46856135 0 0 Z " fill="#D7D6D6" transform="translate(681,159)"/>
<path d="M0 0 C3.30466637 3.55582101 5.60925807 7.58030854 7.8125 11.875 C8.29879883 12.75478516 8.29879883 12.75478516 8.79492188 13.65234375 C11.08784493 18.12035228 11.27734093 21.16910871 10 26 C6.93281139 27.53359431 5.40870931 27.65552102 2 27 C-0.5226978 24.30573333 -2.22765129 21.22158828 -4 18 C-4.49113281 17.12601563 -4.98226562 16.25203125 -5.48828125 15.3515625 C-9.43399267 7.94918559 -9.43399267 7.94918559 -9 3 C-6.74221069 -0.63754945 -4.02433879 -0.6570349 0 0 Z " fill="#D7D6D6" transform="translate(69,1133)"/>
<path d="M0 0 C2.9375 0.75 2.9375 0.75 4.9375 2.75 C6.50516993 10.5786727 7.47823935 18.77409456 6.9375 26.75 C4.9375 28.75 4.9375 28.75 1.4375 29 C-2.0625 28.75 -2.0625 28.75 -4.0625 26.75 C-4.72562177 23.84336495 -5.27562543 20.99988343 -5.75 18.0625 C-5.89244141 17.27166016 -6.03488281 16.48082031 -6.18164062 15.66601562 C-6.98775444 10.80928014 -7.28962742 6.60244804 -6.0625 1.75 C-3.0625 -0.25 -3.0625 -0.25 0 0 Z " fill="#D7D6D6" transform="translate(54.0625,1081.25)"/>
<path d="M0 0 C2 3 2 3 1.9375 6 C1 9 1 9 -1.1953125 10.58203125 C-8.04142947 14.04322966 -16.35545198 15.97294248 -24 15 C-26.0625 13.375 -26.0625 13.375 -27 11 C-26.71848843 8.99205021 -26.38977688 6.98977011 -26 5 C-24.87980469 4.65066406 -23.75960937 4.30132813 -22.60546875 3.94140625 C-21.13280778 3.48178595 -19.66015179 3.0221497 -18.1875 2.5625 C-17.44951172 2.33240234 -16.71152344 2.10230469 -15.95117188 1.86523438 C-5.87292903 -1.28136633 -5.87292903 -1.28136633 0 0 Z " fill="#D7D6D6" transform="translate(270,1008)"/>
<path d="M0 0 C1.875 1.1875 1.875 1.1875 3 3 C3.3515625 5.3359375 3.3515625 5.3359375 3 8 C0.07881067 11.44197514 -3.50503379 14.15317303 -7 17 C-7.74894531 17.64324219 -8.49789063 18.28648437 -9.26953125 18.94921875 C-14.1858395 22.98190754 -14.1858395 22.98190754 -17.8125 23.0625 C-21.62905501 21.20874471 -21.62905501 21.20874471 -23 19 C-22.9660086 16.00450764 -22.72134006 13.8531422 -20.74267578 11.51293945 C-19.08980392 10.01063078 -17.38780285 8.62149101 -15.625 7.25 C-15.03460938 6.76917969 -14.44421875 6.28835938 -13.8359375 5.79296875 C-5.90998998 -0.61562396 -5.90998998 -0.61562396 0 0 Z " fill="#D7D6D6" transform="translate(439,267)"/>
<path d="M0 0 C0.70640625 0.11794922 1.4128125 0.23589844 2.140625 0.35742188 C5.03116215 0.89118584 7.32365511 1.37241245 9.7109375 3.13671875 C11.25175468 5.43635943 11.15503072 6.98729517 10.75 9.6875 C9.10454958 11.90436086 8.22662726 12.61146855 5.47265625 13.05078125 C-12.60066632 12.70576922 -12.60066632 12.70576922 -17.0703125 9.30078125 C-18.93374362 6.75244664 -18.63154739 4.73987912 -18.25 1.6875 C-14.9591608 -4.1198633 -5.51625411 -1.03429765 0 0 Z " fill="#D7D6D6" transform="translate(586.25,253.3125)"/>
<path d="M0 0 C2 3 2 3 2 6 C1 9 1 9 -1.25 10.6875 C-8.5800215 13.25300753 -16.17775432 15.43957865 -24 15 C-25.875 13.875 -25.875 13.875 -27 12 C-27.3125 8.9375 -27.3125 8.9375 -27 6 C-21.10626853 0.10626853 -7.7885051 -2.06633809 0 0 Z " fill="#D7D6D6" transform="translate(489,247)"/>
<path d="M0 0 C5.12786832 0.10705362 8.16107177 3.99149007 11.6171875 7.37890625 C13.57650478 9.27719561 15.45725954 10.7720781 17.6875 12.3125 C20 14.6875 20 14.6875 20.0625 18.375 C19 21.6875 19 21.6875 16 23.6875 C10.63476481 23.54708751 8.16144949 21.51745775 4.375 17.875 C3.45460938 17.00230469 2.53421875 16.12960937 1.5859375 15.23046875 C0.73257813 14.39128906 -0.12078125 13.55210938 -1 12.6875 C-1.763125 11.98496094 -2.52625 11.28242187 -3.3125 10.55859375 C-5 8.6875 -5 8.6875 -5.375 5.5625 C-4.85010113 1.53827536 -3.91666316 0.89756864 0 0 Z " fill="#D6D6D6" transform="translate(96,1176.3125)"/>
<path d="M0 0 C6.6 0.6 6.6 0.6 9 3 C8.66199166 8.48401288 7.02131205 13.2440151 5.0625 18.3125 C4.79759766 19.02728516 4.53269531 19.74207031 4.25976562 20.47851562 C2.26208682 25.73791318 2.26208682 25.73791318 0 28 C-5.24803722 28.55830183 -5.24803722 28.55830183 -7.68359375 26.75 C-9.85843528 23.85881601 -9.22923621 21.50684508 -8.7890625 18.046875 C-7.30261655 12.30713322 -4.2465554 4.2465554 0 0 Z " fill="#D6D6D6" transform="translate(59,1029)"/>
<path d="M0 0 C0.67256836 0.06010254 1.34513672 0.12020508 2.03808594 0.18212891 C3.96411427 0.35853411 5.88838891 0.55378472 7.8125 0.75 C8.69035156 0.81445312 9.56820312 0.87890625 10.47265625 0.9453125 C13.23904097 1.18316988 15.40620609 1.50876299 17.8125 2.9375 C19.33928315 5.70479446 19.26392487 7.65451515 18.8125 10.75 C17.2734375 12.44921875 17.2734375 12.44921875 14.8125 13.75 C12.09163552 13.85790138 9.6865663 13.80808639 7 13.5625 C6.31357422 13.51802734 5.62714844 13.47355469 4.91992188 13.42773438 C-6.3753442 12.5621558 -6.3753442 12.5621558 -10.1875 8.75 C-10.73320803 3.62034455 -10.73320803 3.62034455 -9.1171875 1.04296875 C-6.09186026 -0.98412298 -3.56110944 -0.32860789 0 0 Z " fill="#D6D5D5" transform="translate(200.1875,1011.25)"/>
<path d="M0 0 C3.5625 0.25 3.5625 0.25 7 1 C8.57132597 4.14265195 8.2849465 6.50419298 8 10 C6.90857963 13.12097971 5.43917034 15.96724745 3.875 18.875 C3.49601562 19.64585937 3.11703125 20.41671875 2.7265625 21.2109375 C-0.17962956 26.7133278 -0.17962956 26.7133278 -4.15234375 28.1015625 C-7 28 -7 28 -9.4375 26.5 C-11.66525339 22.93559458 -10.89480014 21.06388395 -10 17 C-8.87268477 14.28529659 -7.50193502 11.74791096 -6.0625 9.1875 C-5.70220703 8.52041016 -5.34191406 7.85332031 -4.97070312 7.16601562 C-3.50073837 4.48326226 -2.17356386 2.17356386 0 0 Z " fill="#D6D5D5" transform="translate(339,936)"/>
<path d="M0 0 C4.95085312 1.94151103 6.65357553 5.74445453 9.1875 10.25 C9.60515625 10.95253906 10.0228125 11.65507813 10.453125 12.37890625 C12.88475383 16.75412573 13.88858698 20.14208056 13.1875 25.25 C12 27.1875 12 27.1875 10.1875 28.25 C7.75 28.75 7.75 28.75 5.1875 28.25 C1.88735844 24.65532248 -0.38800006 20.64750095 -2.5625 16.3125 C-2.87832031 15.71759766 -3.19414063 15.12269531 -3.51953125 14.50976562 C-5.49538508 10.59654862 -6.25821859 7.61804216 -5.8125 3.25 C-4.17744985 0.4340803 -3.24302828 0.28826918 0 0 Z " fill="#D7D6D6" transform="translate(659.8125,108.75)"/>
<path d="M0 0 C0.95777344 0.11859375 1.91554687 0.2371875 2.90234375 0.359375 C3.92457031 0.50890625 4.94679687 0.6584375 6 0.8125 C7.09441406 0.96203125 8.18882812 1.1115625 9.31640625 1.265625 C17.70482673 2.51732673 17.70482673 2.51732673 20 4.8125 C20.55857118 10.06306908 20.55857118 10.06306908 18.75390625 12.484375 C14.0357358 16.0571544 5.51538832 13.71892829 0.0625 13 C-5.43875703 12.2328402 -5.43875703 12.2328402 -7.8515625 10.42578125 C-9.69317414 7.83875538 -9.44733799 5.87996053 -9 2.8125 C-6.00745455 -0.15277852 -4.10919663 -0.51976446 0 0 Z " fill="#D7D6D6" transform="translate(146,1003.1875)"/>
<path d="M0 0 C1.76171875 1.33203125 1.76171875 1.33203125 3 3 C2.93157007 6.28463668 2.78227384 8.22726609 0.3984375 10.58203125 C-2.7664275 12.45311593 -5.70545821 13.00234332 -9.3125 13.6875 C-10.58738281 13.93886719 -11.86226562 14.19023438 -13.17578125 14.44921875 C-16.89441368 14.98479298 -20.25416952 15.32107118 -24 15 C-26 12 -26 12 -26.0625 8.5 C-25 5 -25 5 -22 3.1875 C-20.67945045 2.75091015 -19.34413754 2.35742983 -18 2 C-17.29101562 1.79632812 -16.58203125 1.59265625 -15.8515625 1.3828125 C-10.77301236 0.08199088 -5.2138768 -0.97367579 0 0 Z " fill="#D6D5D5" transform="translate(110,1004)"/>
<path d="M0 0 C2.71566447 1.5992049 5.01446897 3.54632342 7.375 5.625 C8.00277344 6.13417969 8.63054688 6.64335938 9.27734375 7.16796875 C12.56760714 10.00342251 13.85715081 11.44803074 14.9765625 15.7734375 C15 19 15 19 14 21 C10.78011198 22.60994401 8.44146942 21.79640287 5 21 C2.05078125 18.85546875 2.05078125 18.85546875 -0.6875 16.1875 C-1.59886719 15.31480469 -2.51023437 14.44210938 -3.44921875 13.54296875 C-4.29097656 12.70378906 -5.13273438 11.86460938 -6 11 C-7.14082031 9.92878906 -7.14082031 9.92878906 -8.3046875 8.8359375 C-10 7 -10 7 -10.4375 4.4375 C-10 2 -10 2 -8.9375 0.125 C-5.75029347 -1.72563605 -3.51104121 -0.84293563 0 0 Z " fill="#D6D5D5" transform="translate(628,71)"/>
<path d="M0 0 C2.64048507 0.78125692 5.25862989 1.58322589 7.875 2.4375 C8.54176758 2.65470703 9.20853516 2.87191406 9.89550781 3.09570312 C12.81389646 4.08989588 14.7915358 4.7915358 17 7 C17.25 10.5 17.25 10.5 17 14 C15 16 15 16 11.3984375 16.30078125 C6.76655017 16.18043171 2.89861237 14.88331429 -1.375 13.1875 C-2.08527344 12.92646484 -2.79554688 12.66542969 -3.52734375 12.39648438 C-7.15599467 11.00217354 -8.79327055 10.31009418 -11 7 C-11.34806512 4.21547906 -11.32671539 2.61259135 -10 0.125 C-6.62414942 -1.77391595 -3.58547884 -0.87796916 0 0 Z " fill="#D6D5D5" transform="translate(146,1207)"/>
<path d="M0 0 C1.58748047 -0.02416992 1.58748047 -0.02416992 3.20703125 -0.04882812 C4.22152344 -0.04947266 5.23601563 -0.05011719 6.28125 -0.05078125 C7.21001953 -0.05376221 8.13878906 -0.05674316 9.09570312 -0.05981445 C11.93254188 0.37948074 12.82042379 1.02089225 14.5 3.3125 C14.92192788 6.12535252 15.00902996 7.61090384 13.31640625 9.94384766 C10.83229859 11.81560942 9.1529907 11.70016388 6.0625 11.7109375 C5.00289062 11.71480469 3.94328125 11.71867187 2.8515625 11.72265625 C1.74554687 11.71105469 0.63953125 11.69945312 -0.5 11.6875 C-1.60601563 11.69910156 -2.71203125 11.71070313 -3.8515625 11.72265625 C-4.91117188 11.71878906 -5.97078125 11.71492188 -7.0625 11.7109375 C-8.03316406 11.70755371 -9.00382813 11.70416992 -10.00390625 11.70068359 C-12.5 11.3125 -12.5 11.3125 -14.34765625 9.97900391 C-15.5 8.3125 -15.5 8.3125 -15.375 5.25 C-13.29373004 -1.73712057 -5.98421397 -0.01822233 0 0 Z " fill="#D6D5D5" transform="translate(532.5,40.6875)"/>
</svg>
