<svg xmlns="http://www.w3.org/2000/svg" xmlns:xlink="http://www.w3.org/1999/xlink" version="1.1" width="810pt" height="810pt" viewBox="0 0 810 810">
<defs>
<clipPath id="clip_0">
<path transform="matrix(.24,0,0,.24,0,0)" d="M0 0H3375V3375H0Z" fill-rule="evenodd"/>
</clipPath>
<clipPath id="clip_1">
<path transform="matrix(.24,0,0,.24,0,0)" d="M0 0H3375V3375H0Z" fill-rule="evenodd"/>
</clipPath>
<clipPath id="clip_2">
<path transform="matrix(.24,0,0,.24,0,0)" d="M0 0H3375V3406.25H0Z"/>
</clipPath>
<clipPath id="clip_3">
<path transform="matrix(.24,0,0,.24,0,0)" d="M0 0H3375V3375H0Z"/>
</clipPath>
<clipPath id="clip_4">
<path transform="matrix(.24,0,0,.24,0,0)" d="M0 0H3375V3375H0Z"/>
</clipPath>
<clipPath id="clip_5">
<path transform="matrix(.24,0,0,.24,0,0)" d="M833.8677 1073.5789H922.01016V2120.6187H833.8677Z"/>
</clipPath>
<clipPath id="clip_6">
<path transform="matrix(.24,0,0,.24,0,0)" d="M895.73 1099.308C899.79019 2021.4773 924.65878 2077.8126 921.61367 2100.651 920.5986 2107.7564 918.061 2110.294 915.0158 2113.8465 911.46316 2116.8917 906.38796 2119.9368 901.3127 2120.4444 895.73 2120.952 885.57949 2116.8917 881.0118 2112.8316 877.4591 2109.7864 875.429 2104.2037 874.9215 2099.1285 874.9215 2094.5606 875.429 2088.978 878.4742 2084.9178 882.53439 2079.8424 891.16226 2074.2598 897.7601 2074.2598 903.85037 2073.7523 913.4933 2079.335 917.0459 2083.9027 920.5986 2087.4554 922.12118 2093.038 921.61367 2098.1134 921.1061 2104.2037 915.5234 2113.3389 910.9556 2116.8917 906.89547 2119.9368 901.3127 2120.952 896.745 2120.4444 891.6698 2120.4444 886.08706 2117.9068 883.0419 2114.8616 879.4892 2111.8165 877.9667 2108.7713 875.429 2101.666 867.30868 2079.335 853.098 2021.9849 845.9927 1950.4241 829.75198 1782.434 831.27456 1169.8536 843.9626 1099.308 845.9927 1089.1575 845.9927 1086.6199 850.5604 1082.0521 855.1281 1077.4845 866.29367 1073.4243 872.8914 1073.9318 878.9817 1073.9318 885.57949 1077.992 889.13217 1082.0521 893.1923 1086.6199 895.73 1099.308 895.73 1099.308"/>
</clipPath>
<clipPath id="clip_7">
<path transform="matrix(.24,0,0,.24,0,0)" d="M0 0H3375V3406.25H0Z"/>
</clipPath>
<clipPath id="clip_8">
<path transform="matrix(.24,0,0,.24,0,0)" d="M0 0H3375V3375H0Z"/>
</clipPath>
<clipPath id="clip_9">
<path transform="matrix(.24,0,0,.24,0,0)" d="M0 0H3375V3375H0Z"/>
</clipPath>
<clipPath id="clip_10">
<path transform="matrix(.24,0,0,.24,0,0)" d="M416.2813 1329.8839H1130.9966V1390.8342H416.2813Z"/>
</clipPath>
<clipPath id="clip_11">
<path transform="matrix(.24,0,0,.24,0,0)" d="M442.0044 1330.2308C1119.0402 1335.8136 1123.1004 1338.3512 1126.6531 1342.919 1129.6981 1346.9791 1130.7131 1352.5619 1130.7131 1357.1295 1130.2057 1362.2048 1128.6831 1367.7876 1125.1304 1371.3402 1121.0703 1375.4004 1110.9198 1379.4606 1104.8295 1379.4606 1099.7543 1378.9531 1094.679 1376.4154 1091.6339 1372.8628 1088.0813 1369.8176 1085.0361 1364.7424 1084.5286 1359.6672 1084.021 1353.5769 1086.5586 1343.4265 1091.6339 1339.3662 1096.2017 1334.7986 1106.352 1332.7684 1112.4424 1333.276 1117.5176 1333.7836 1122.0852 1337.3362 1125.1304 1340.8888 1128.1755 1344.4415 1130.2057 1350.0243 1130.7131 1354.5919 1130.7131 1359.6672 1129.6981 1365.25 1126.6531 1369.3102 1123.1004 1373.8778 1119.0402 1376.4154 1107.3672 1379.4606 1043.4192 1395.1939 503.4147 1393.1637 442.0044 1381.9982 431.85395 1379.9682 429.31636 1379.9682 424.74864 1375.4004 420.1809 1370.8327 416.12074 1359.6672 416.62828 1353.0693 416.62828 1346.9791 420.68846 1340.3814 424.74864 1336.8286 429.31636 1332.7684 442.0044 1330.2308 442.0044 1330.2308"/>
</clipPath>
<clipPath id="clip_12">
<path transform="matrix(.24,0,0,.24,0,0)" d="M0 0H3375V3406.25H0Z"/>
</clipPath>
<clipPath id="clip_13">
<path transform="matrix(.24,0,0,.24,0,0)" d="M0 0H3375V3375H0Z"/>
</clipPath>
<clipPath id="clip_14">
<path transform="matrix(.24,0,0,.24,0,0)" d="M0 0H3375V3375H0Z"/>
</clipPath>
<clipPath id="clip_15">
<path transform="matrix(.24,0,0,.24,0,0)" d="M1232.644 1509.3052H1743.458V1974.9319H1232.644Z"/>
</clipPath>
<clipPath id="clip_16">
<path transform="matrix(.24,0,0,.24,0,0)" d="M1423.0465 1552.0184C1363.6663 1635.7598 1352.5007 1658.5983 1339.8128 1692.6023 1320.5269 1745.8922 1268.7595 1882.4159 1285.5077 1903.7319 1292.613 1912.8673 1312.914 1908.8071 1327.1246 1903.7319 1346.4105 1897.134 1366.7114 1878.8633 1387.0123 1858.0548 1414.9262 1829.6336 1442.8399 1763.148 1471.7687 1741.832 1490.5471 1727.6213 1513.3856 1718.486 1529.6264 1722.0387 1544.852 1725.5913 1555.51 1745.3847 1567.6906 1759.0879 1580.3787 1774.3135 1589.0066 1793.5994 1604.2322 1809.3325 1621.9956 1828.111 1651.4319 1861.6074 1670.7178 1862.115 1685.4359 1862.115 1697.6165 1835.2163 1709.797 1833.1862 1718.4249 1831.6636 1728.5755 1834.7088 1734.1581 1839.7839 1739.741 1844.8593 1743.2936 1857.0398 1742.786 1864.145 1742.2786 1869.7278 1738.7258 1875.8181 1734.6657 1879.3709 1730.6055 1883.4309 1724.5151 1886.9837 1718.9325 1886.9837 1711.8272 1886.9837 1700.154 1883.4309 1695.0789 1877.8482 1690.0037 1871.7579 1687.4661 1860.085 1689.4961 1852.472 1691.0187 1845.3667 1700.154 1836.7389 1706.7518 1833.6937 1711.8272 1831.6636 1718.9325 1832.1712 1724.0076 1833.6937 1729.5903 1835.7239 1735.1731 1839.2765 1738.2183 1844.3517 1741.771 1850.442 1742.786 1860.5924 1741.2634 1869.7278 1738.7258 1881.9085 1728.5755 1901.7018 1717.9174 1910.3297 1708.2744 1917.435 1693.5563 1920.9877 1681.3757 1920.4802 1668.1802 1919.4651 1655.9995 1911.3447 1641.2814 1902.2094 1619.4579 1888.5062 1587.4839 1861.6074 1565.153 1838.7689 1543.8369 1816.9454 1530.1339 1768.7307 1509.8329 1768.7307 1482.4268 1769.7459 1447.4076 1864.6526 1416.4487 1896.119 1393.1027 1919.9727 1371.2792 1936.2134 1346.4105 1948.9015 1323.0645 1961.5895 1291.598 1977.8303 1271.8046 1973.77 1256.579 1971.2324 1240.8457 1956.5143 1235.263 1943.3187 1229.6802 1930.123 1236.278 1911.8523 1239.3231 1893.5814 1242.3683 1870.7429 1248.4585 1845.8743 1255.5639 1816.438 1265.7144 1775.3286 1280.4325 1713.9182 1295.6582 1672.3014 1308.3463 1637.7898 1321.5419 1609.3685 1338.2902 1581.9623 1353.5159 1556.5862 1375.8468 1521.567 1390.5651 1513.4467 1397.1629 1509.894 1403.253 1510.4015 1408.8358 1511.9241 1414.4186 1513.4467 1420.5089 1518.0144 1423.554 1522.582 1426.5991 1527.1498 1428.1217 1535.2702 1427.6143 1540.3453 1427.1067 1544.9131 1423.0465 1552.0184 1423.0465 1552.0184"/>
</clipPath>
<clipPath id="clip_17">
<path transform="matrix(.24,0,0,.24,0,0)" d="M0 0H3375V3406.25H0Z"/>
</clipPath>
<clipPath id="clip_18">
<path transform="matrix(.24,0,0,.24,0,0)" d="M0 0H3375V3375H0Z"/>
</clipPath>
<clipPath id="clip_19">
<path transform="matrix(.24,0,0,.24,0,0)" d="M0 0H3375V3375H0Z"/>
</clipPath>
<clipPath id="clip_20">
<path transform="matrix(.24,0,0,.24,0,0)" d="M1672.6189 1488.7168H2095.1082V1984.6045H1672.6189Z"/>
</clipPath>
<clipPath id="clip_21">
<path transform="matrix(.24,0,0,.24,0,0)" d="M2010.2506 1543.8981C1903.6708 1544.4055 1848.8583 1549.4807 1816.3768 1555.0635 1795.0609 1559.1237 1778.8201 1563.1838 1763.0869 1568.7666 1749.8914 1573.3344 1729.0829 1575.872 1727.0527 1584.4999 1725.0227 1594.6503 1749.3838 1617.9963 1766.6395 1629.1619 1786.433 1642.3574 1816.3768 1647.4328 1842.7681 1654.0305 1870.6818 1661.6433 1897.5806 1662.1509 1929.5545 1671.2863 1969.6488 1682.9594 2037.1494 1699.2001 2064.048 1722.0386 2081.8116 1736.7568 2092.4696 1755.0276 2093.992 1774.3135 2095.5145 1794.6144 2085.364 1818.468 2069.1234 1841.3065 2042.7322 1877.8482 1966.0962 1930.6306 1929.0469 1954.4841 1907.2234 1969.2024 1888.9526 1983.413 1873.2194 1983.413 1862.054 1983.413 1851.3959 1978.8452 1843.7831 1969.2024 1831.6026 1954.9917 1820.9446 1910.3296 1822.467 1894.5964 1822.9746 1887.4911 1826.0198 1883.4309 1829.5724 1879.3707 1833.1251 1875.8181 1839.2153 1872.2654 1844.7981 1871.7579 1849.8734 1870.7429 1856.4712 1871.7579 1861.0388 1874.2955 1866.1141 1876.8331 1870.6818 1881.4009 1872.7119 1886.9837 1875.2495 1893.0739 1875.2495 1905.2544 1871.1893 1911.3447 1867.6367 1917.9425 1856.9786 1923.5253 1849.8734 1924.0327 1844.2907 1925.0479 1838.2003 1922.5103 1833.6326 1919.4651 1829.5724 1916.4199 1825.0048 1911.8523 1823.4822 1906.2695 1821.9596 1899.6716 1823.9898 1887.4911 1827.5424 1881.4009 1830.5875 1876.8331 1836.1702 1873.2805 1841.7529 1872.2654 1848.3508 1870.7429 1860.5314 1873.788 1866.1141 1877.8482 1870.6818 1880.8933 1872.2044 1885.461 1874.742 1892.0588 1878.2947 1903.7318 1874.2345 1941.7962 1879.8173 1943.3186 1883.8775 1944.3338 1888.9526 1928.093 1899.1032 1917.9425 1922.4492 1894.5964 2004.6679 1850.9495 2025.9839 1818.9755 2038.6719 1799.6897 2048.8223 1777.3587 2040.702 1762.1329 2029.029 1739.8019 1957.9758 1729.1439 1920.4191 1718.486 1887.43 1709.858 1857.4862 1708.843 1827.0348 1700.7227 1796.5835 1693.1098 1763.0869 1684.9894 1737.2033 1670.2713 1713.3496 1656.5681 1684.9284 1638.2974 1676.808 1618.5039 1669.7026 1602.7708 1673.2554 1579.9321 1679.8532 1566.229 1684.9284 1555.0635 1695.5863 1546.9431 1706.7518 1539.8379 1718.9324 1531.7174 1735.1731 1527.1498 1751.414 1521.567 1769.6847 1515.9843 1786.9406 1510.909 1810.7941 1506.8489 1845.3057 1500.251 1902.6558 1494.6683 1939.1974 1492.1306 1966.0962 1490.6082 1994.5175 1488.578 2010.2506 1491.1156 2018.371 1492.6382 2023.4463 1494.1608 2028.0139 1497.7134 2032.0741 1501.7736 2035.6268 1509.3865 2036.6419 1514.4617 2037.1494 1519.0294 2036.6419 1523.0896 2035.1193 1527.1498 2033.5967 1530.7024 2031.5667 1534.7626 2028.0139 1537.3002 2023.4463 1540.8529 2010.2506 1543.8981 2010.2506 1543.8981"/>
</clipPath>
<clipPath id="clip_22">
<path transform="matrix(.24,0,0,.24,0,0)" d="M0 0H3375V3406.25H0Z"/>
</clipPath>
<clipPath id="clip_23">
<path transform="matrix(.24,0,0,.24,0,0)" d="M0 0H3375V3375H0Z"/>
</clipPath>
<clipPath id="clip_24">
<path transform="matrix(.24,0,0,.24,0,0)" d="M0 0H3375V3375H0Z"/>
</clipPath>
<clipPath id="clip_25">
<path transform="matrix(.24,0,0,.24,0,0)" d="M2145.8306 1367.8589H2614.6392V1941.9507H2145.8306Z"/>
</clipPath>
<clipPath id="clip_26">
<path transform="matrix(.24,0,0,.24,0,0)" d="M2197.019 1388.596C2237.1134 1603.7858 2247.264 1817.453 2256.9068 1876.8333 2259.952 1896.119 2266.0423 1904.747 2266.0423 1914.8975 2266.0423 1921.4953 2265.027 1927.0779 2261.4744 1931.6458 2257.4144 1936.721 2247.264 1941.2886 2240.666 1941.2886 2235.0833 1941.7962 2228.993 1938.751 2224.9329 1934.6908 2220.8726 1931.1382 2216.305 1925.0479 2217.32 1918.9575 2219.35 1908.2996 2242.1885 1901.1943 2259.952 1879.8784 2304.1065 1826.5884 2410.6864 1637.2822 2457.886 1565.7216 2483.262 1528.1648 2497.9803 1508.3715 2517.7738 1480.9652 2537.0596 1454.0664 2558.883 1412.4496 2576.1387 1402.2991 2584.2593 1397.7315 2592.3797 1397.2239 2598.9774 1399.7615 2605.0677 1402.2991 2612.1729 1410.4194 2613.6956 1417.0173 2615.7257 1423.6151 2612.6805 1434.2731 2608.1129 1439.3483 2603.545 1444.4236 2592.887 1447.9762 2586.2894 1446.9612 2579.6915 1445.946 2570.5562 1439.3483 2568.0186 1433.258 2564.9732 1427.1677 2565.4808 1416.0022 2569.0335 1410.4194 2572.0787 1404.3292 2582.229 1399.254 2588.3194 1398.2389 2593.3946 1397.2239 2599.4849 1399.254 2603.545 1402.2991 2607.6053 1404.8367 2611.6656 1409.4044 2613.188 1414.4796 2614.7105 1420.57 2614.2032 1427.1677 2609.6353 1437.3182 2597.4549 1466.7545 2537.5672 1532.7326 2497.9803 1590.5902 2448.7506 1663.166 2384.2952 1783.449 2338.618 1840.7991 2311.7193 1874.8031 2278.2227 1896.6266 2266.0423 1914.8975 2260.4595 1923.5253 2261.982 1931.6458 2257.4144 1935.7058 2253.354 1939.7661 2246.2489 1941.7962 2240.666 1941.2886 2234.5758 1940.781 2225.9478 1936.721 2221.3802 1930.123 2213.7674 1920.4802 2213.7674 1905.2544 2209.707 1880.8933 2199.5567 1816.438 2188.8988 1614.4437 2174.688 1525.1198 2166.06 1470.3073 2144.2366 1416.5098 2146.2669 1393.1637 2146.7742 1385.0433 2149.3118 1380.4756 2152.8646 1376.4154 2156.9249 1372.3552 2164.03 1368.8026 2169.6129 1368.295 2175.1956 1367.7876 2182.3009 1369.8176 2186.8687 1373.3703 2191.4364 1376.923 2197.019 1388.596 2197.019 1388.596"/>
</clipPath>
<clipPath id="clip_27">
<path transform="matrix(.24,0,0,.24,0,0)" d="M0 0H3375V3406.25H0Z"/>
</clipPath>
<clipPath id="clip_28">
<path transform="matrix(.24,0,0,.24,0,0)" d="M0 0H3375V3375H0Z"/>
</clipPath>
<clipPath id="clip_29">
<path transform="matrix(.24,0,0,.24,0,0)" d="M0 0H3375V3375H0Z"/>
</clipPath>
<clipPath id="clip_30">
<path transform="matrix(.24,0,0,.24,0,0)" d="M2485.9029 1594.7534H2778.03V1999.3366H2485.9029Z"/>
</clipPath>
<clipPath id="clip_31">
<path transform="matrix(.24,0,0,.24,0,0)" d="M2537.0596 1607.3385C2776.103 1967.1724 2777.6256 1969.2024 2777.118 1974.7852 2776.103 1981.3829 2770.5203 1991.5335 2764.9376 1995.5936 2760.8773 1998.6387 2754.2796 1999.6538 2749.2044 1999.1463 2744.129 1998.6387 2738.0389 1996.6087 2734.486 1992.5485 2729.9185 1987.9807 2725.8582 1976.8152 2726.3658 1970.2174 2726.3658 1964.6348 2729.9185 1959.0519 2733.471 1955.4993 2737.5313 1951.9467 2742.6065 1948.9015 2748.1893 1948.3939 2754.787 1948.3939 2765.9527 1952.4541 2770.5203 1957.0219 2774.5804 1960.5745 2777.118 1966.6648 2777.118 1971.74 2777.118 1978.3378 2772.0428 1989.5033 2767.475 1994.071 2763.415 1997.6237 2757.3248 1999.6538 2752.2496 1999.1463 2745.6517 1999.1463 2738.5465 1996.1011 2730.9334 1988.4883 2711.6475 1971.2324 2688.809 1919.9727 2659.3726 1875.8181 2615.7257 1810.3477 2506.6082 1672.809 2490.875 1637.2824 2486.815 1627.6394 2485.7999 1624.0867 2486.815 1617.9965 2487.8299 1611.9061 2491.3826 1604.8008 2496.4578 1601.2482 2502.0406 1596.6804 2514.2213 1594.1428 2521.3265 1595.6654 2527.4168 1597.188 2537.0596 1607.3385 2537.0596 1607.3385"/>
</clipPath>
<clipPath id="clip_32">
<path transform="matrix(.24,0,0,.24,0,0)" d="M0 0H3375V3406.25H0Z"/>
</clipPath>
<clipPath id="clip_33">
<path transform="matrix(.24,0,0,.24,0,0)" d="M0 0H3375V3375H0Z"/>
</clipPath>
<clipPath id="clip_34">
<path transform="matrix(.24,0,0,.24,0,0)" d="M0 0H3375V3375H0Z"/>
</clipPath>
<clipPath id="clip_35">
<path transform="matrix(.24,0,0,.24,0,0)" d="M1318.8366 2170.1639H1596.5806V2361.0115H1318.8366Z"/>
</clipPath>
<clipPath id="clip_36">
<path transform="matrix(.24,0,0,.24,0,0)" d="M1349.9625 2254.0775C1355.2868 2292.3619 1356.5545 2301.4893 1353.7655 2306.8135 1351.4838 2311.1236 1345.6524 2314.4197 1342.1028 2315.4339 1339.5674 2316.1944 1337.032 2315.6873 1334.7501 2314.673 1331.7077 2313.4056 1328.1581 2311.3773 1326.1298 2307.574 1322.8339 2301.7427 1323.0874 2290.8406 1322.0733 2279.9383 1320.8056 2263.9654 1319.2843 2235.8226 1320.552 2221.3709 1321.3126 2213.0042 1321.3126 2207.9334 1324.6085 2201.8485 1328.6652 2194.2423 1338.8068 2185.6219 1346.413 2180.551 1352.7515 2176.4945 1358.0757 2173.7056 1365.6819 2172.1844 1375.8235 2170.156 1392.0499 2170.663 1401.6845 2173.1986 1408.7836 2174.9732 1413.3472 2177.7623 1418.6715 2182.326 1425.2636 2187.9039 1432.1091 2197.031 1436.6729 2206.1585 1441.49 2216.3 1444.0254 2227.4559 1446.3073 2240.64 1449.3497 2257.627 1452.6458 2290.3336 1451.378 2299.7144 1451.1245 2302.7569 1450.6174 2303.771 1449.0962 2305.546 1447.575 2307.574 1444.5325 2310.1094 1441.49 2310.87 1438.1941 2311.3773 1432.3627 2309.856 1429.5737 2307.8277 1427.2919 2305.7994 1426.0242 2303.771 1425.5171 2299.461 1423.7423 2288.8123 1431.602 2255.345 1436.4193 2239.6258 1439.9688 2228.7235 1443.7719 2219.8497 1448.5891 2212.7506 1452.3922 2206.6656 1456.1953 2201.8485 1461.5197 2198.2989 1467.0974 2194.4957 1473.6895 2191.1998 1481.5492 2190.6927 1492.1979 2189.6785 1510.4526 2191.7069 1519.3265 2198.0452 1527.4397 2204.1302 1530.4822 2213.2576 1534.5388 2225.681 1541.638 2248.246 1533.2711 2320.5047 1545.441 2325.8289 1553.3008 2329.3785 1572.0626 2301.9964 1580.1758 2300.2215 1583.979 2299.461 1586.5144 2300.475 1589.0497 2301.9964 1591.3316 2303.264 1593.867 2306.0528 1594.8811 2308.5882 1595.8953 2311.1236 1596.1488 2314.9268 1595.6417 2317.4622 1594.8811 2320.251 1593.1063 2323.2935 1590.8245 2325.0684 1587.782 2327.0968 1581.4436 2328.618 1577.894 2327.35 1574.091 2326.336 1570.0343 2321.5189 1568.7666 2318.2227 1567.4989 2315.4339 1567.7525 2311.8843 1569.0202 2309.0953 1570.5414 2306.0528 1575.3587 2301.7427 1578.6546 2300.475 1581.4436 2299.461 1584.9932 2299.968 1587.5286 2301.2357 1590.8245 2303.0106 1595.1347 2307.8277 1595.6417 2311.6307 1596.4024 2315.4339 1594.6276 2319.744 1591.8386 2324.0543 1587.5286 2330.8997 1576.3728 2339.7735 1569.0202 2346.112 1562.6817 2351.4364 1557.1038 2358.0284 1550.7654 2359.8033 1545.6946 2361.0709 1539.3561 2359.8033 1535.0459 2357.5213 1530.4822 2354.9859 1527.4397 2351.69 1524.3972 2344.5909 1516.5376 2326.5897 1514.2557 2256.8663 1509.9456 2236.5833 1508.1708 2228.47 1508.4243 2223.1456 1504.8748 2219.5963 1501.3252 2216.5538 1494.2261 2215.5396 1488.9019 2216.0467 1483.0704 2216.5538 1475.7178 2219.089 1471.154 2223.3992 1466.0833 2228.47 1464.055 2235.8226 1461.2661 2245.2037 1456.7024 2259.4017 1456.4489 2292.6153 1450.6174 2302.7569 1448.082 2307.3206 1444.786 2309.856 1441.49 2310.87 1438.7012 2311.6307 1434.8981 2310.87 1432.3627 2309.6024 1429.8273 2308.081 1427.799 2306.3065 1426.2777 2302.5035 1421.9675 2293.376 1422.9817 2262.6978 1420.1928 2247.9925 1418.1644 2237.8509 1416.1361 2229.4842 1412.8401 2222.385 1410.0513 2216.3 1407.7694 2211.2293 1403.2057 2207.1727 1398.3884 2202.609 1390.0216 2197.7918 1383.4296 2197.2847 1377.0912 2196.7777 1369.9921 2199.5665 1364.4142 2203.116 1358.5828 2207.1727 1352.7515 2212.2435 1349.9625 2221.1173 1344.8917 2237.5975 1358.3292 2284.7557 1355.2868 2299.7144 1354.019 2306.0528 1352.4978 2310.1094 1348.9484 2312.6448 1345.6524 2315.1802 1338.5532 2315.941 1334.7501 2314.673 1331.2006 2313.659 1328.4116 2311.6307 1326.1298 2307.574 1321.3126 2298.7003 1318.5237 2266.7545 1320.0449 2256.3592 1320.8056 2251.7955 1322.0733 2249.0067 1324.355 2246.7249 1326.6369 2244.1895 1330.6935 2242.4146 1333.9895 2242.1612 1337.2855 2241.9075 1341.5957 2243.1754 1344.1311 2245.2037 1346.92 2247.232 1349.9625 2254.0775 1349.9625 2254.0775"/>
</clipPath>
<clipPath id="clip_37">
<path transform="matrix(.24,0,0,.24,0,0)" d="M0 0H3375V3406.25H0Z"/>
</clipPath>
<clipPath id="clip_38">
<path transform="matrix(.24,0,0,.24,0,0)" d="M0 0H3375V3375H0Z"/>
</clipPath>
<clipPath id="clip_39">
<path transform="matrix(.24,0,0,.24,0,0)" d="M0 0H3375V3375H0Z"/>
</clipPath>
<clipPath id="clip_40">
<path transform="matrix(.24,0,0,.24,0,0)" d="M1596.2797 2180.7633H1838.8273V2337.0264H1596.2797Z"/>
</clipPath>
<clipPath id="clip_41">
<path transform="matrix(.24,0,0,.24,0,0)" d="M1695.029 2206.6658C1652.181 2239.1187 1642.293 2247.232 1635.7009 2258.1343 1628.6019 2269.5435 1618.7139 2289.3194 1621.7564 2297.6864 1624.2918 2303.7713 1634.6868 2308.0814 1641.5324 2308.0814 1648.6315 2308.0814 1657.5054 2301.9964 1664.0973 2296.672 1670.9429 2290.8406 1676.0137 2282.4739 1681.0845 2273.3465 1687.1694 2262.4444 1688.6906 2242.9219 1696.2968 2234.8087 1701.6211 2228.977 1708.7202 2223.6529 1716.5798 2224.667 1731.0316 2226.949 1755.6249 2266.501 1771.3442 2275.6285 1780.7252 2281.2064 1788.0779 2282.4739 1796.9518 2283.995 1806.0791 2285.77 1818.5026 2284.2486 1825.0946 2285.77 1828.644 2286.5306 1831.1795 2287.291 1833.4613 2289.066 1835.7432 2290.8406 1837.518 2294.1368 1838.025 2296.9256 1838.7857 2299.7147 1838.5321 2303.2642 1837.0109 2306.053 1835.2361 2309.0955 1829.9119 2313.152 1826.3623 2313.9127 1823.3198 2314.6734 1820.0238 2313.9127 1817.4884 2312.3917 1814.1924 2310.3634 1810.6428 2304.7855 1809.8822 2301.2359 1809.3751 2298.1934 1810.1358 2294.8973 1811.9105 2292.3619 1814.1924 2289.3194 1819.7703 2286.0235 1823.5734 2285.5164 1826.6159 2285.263 1829.9119 2286.2769 1832.1936 2288.0518 1834.9826 2290.5872 1838.5321 2296.165 1838.2786 2299.968 1838.2786 2304.0247 1834.9826 2309.349 1831.9401 2311.6309 1829.6582 2313.6593 1827.1228 2313.6593 1823.3198 2314.1663 1815.9672 2314.6734 1799.9942 2312.138 1790.8668 2310.3634 1783.7677 2308.842 1778.6969 2307.828 1772.612 2305.2926 1766.02 2302.5035 1759.1744 2298.9539 1753.0895 2294.1368 1745.9904 2288.5589 1737.8772 2281.7135 1732.8064 2273.6 1727.2285 2265.2332 1725.7073 2243.6824 1721.3971 2243.429 1716.0728 2243.429 1709.4808 2275.6285 1702.3817 2288.5589 1696.2968 2299.461 1689.9583 2309.0955 1682.3522 2316.955 1674.9995 2324.5614 1665.6185 2332.9283 1657.2517 2335.4637 1650.1527 2337.7454 1642.293 2335.717 1635.7009 2334.703 1629.616 2333.9425 1624.0382 2332.9283 1618.7139 2330.1392 1612.8825 2327.3504 1605.7833 2323.04 1602.2338 2317.2088 1598.1773 2310.6168 1596.656 2300.475 1596.9096 2292.3619 1597.1631 2285.0093 1600.2056 2278.4173 1602.9944 2270.5577 1606.2904 2261.4302 1610.347 2250.528 1616.6856 2240.8936 1624.0382 2229.9913 1634.9403 2219.089 1645.589 2209.2012 1656.4912 2199.5667 1672.4641 2185.3685 1680.8309 2182.326 1684.8876 2181.0584 1687.9299 2181.0584 1690.9724 2182.0726 1694.0149 2183.0867 1697.0574 2185.622 1698.5786 2188.411 1700.3534 2190.9464 1700.8605 2195.2567 1700.3534 2198.299 1699.5928 2201.3414 1695.029 2206.6658 1695.029 2206.6658"/>
</clipPath>
<clipPath id="clip_42">
<path transform="matrix(.24,0,0,.24,0,0)" d="M0 0H3375V3406.25H0Z"/>
</clipPath>
<clipPath id="clip_43">
<path transform="matrix(.24,0,0,.24,0,0)" d="M0 0H3375V3375H0Z"/>
</clipPath>
<clipPath id="clip_44">
<path transform="matrix(.24,0,0,.24,0,0)" d="M0 0H3375V3375H0Z"/>
</clipPath>
<clipPath id="clip_45">
<path transform="matrix(.24,0,0,.24,0,0)" d="M1833.3662 2168.5399H1970.4674V2328.287H1833.3662Z"/>
</clipPath>
<clipPath id="clip_46">
<path transform="matrix(.24,0,0,.24,0,0)" d="M1860.8435 2213.2579C1882.3943 2273.8536 1884.1691 2278.9244 1883.4085 2283.995 1882.9014 2288.3052 1880.873 2293.376 1877.8306 2295.658 1874.7881 2297.6864 1868.9567 2298.7005 1865.4072 2297.4327 1861.8577 2296.165 1858.8152 2292.6156 1856.5333 2288.0518 1852.7302 2280.4456 1850.9555 2263.4586 1849.9413 2251.7957 1848.9271 2241.147 1847.6594 2230.752 1849.6878 2221.1175 1851.7161 2211.99 1856.7869 2202.6092 1861.6041 2195.003 1865.9143 2188.411 1870.4779 2182.326 1876.3093 2177.7623 1882.1408 2173.4522 1889.747 2169.1419 1896.5925 2168.8885 1902.9309 2168.8885 1910.03 2171.4239 1915.1008 2176.241 1921.9464 2182.5797 1926.2565 2197.5384 1929.299 2208.9476 1932.3414 2220.6104 1930.8202 2231.766 1933.6091 2245.2037 1936.9052 2261.9373 1942.2295 2296.4185 1949.5822 2301.743 1952.6246 2303.771 1956.6812 2300.2218 1959.7236 2301.2359 1963.2732 2302.5035 1967.5834 2306.053 1969.1046 2309.0955 1970.3723 2311.6309 1970.3723 2314.9268 1969.6117 2317.4622 1969.1046 2319.9976 1967.3298 2322.7867 1965.048 2324.5614 1962.259 2326.3363 1956.4277 2327.6038 1953.1316 2326.5897 1949.5822 2325.322 1945.5255 2321.2655 1944.5114 2317.7159 1943.4972 2314.1663 1945.0184 2308.5885 1947.0468 2305.7994 1948.568 2303.5177 1951.6105 2301.9964 1954.1458 2301.2359 1956.6812 2300.7288 1959.9772 2300.9822 1962.5126 2302.25 1964.7944 2303.2642 1967.3298 2305.546 1968.5975 2307.8277 1969.8652 2310.1097 1970.3723 2313.4056 1970.1188 2316.1947 1969.6117 2318.73 1968.0905 2321.7725 1966.0621 2323.547 1964.2874 2325.322 1961.752 2326.5897 1958.7095 2327.0968 1953.8923 2328.1109 1945.5255 2328.618 1940.2012 2326.0826 1934.3698 2323.04 1930.0596 2316.7017 1925.7495 2308.5885 1918.3969 2294.8973 1911.5513 2265.2332 1908.0017 2248.246 1905.7199 2236.5833 1906.4805 2227.2025 1904.1986 2217.8214 1902.1703 2209.9617 1899.8884 2196.5242 1895.8318 2196.017 1891.0147 2195.2564 1878.5912 2212.7508 1875.5487 2222.1317 1873.0133 2230.752 1876.0558 2239.8795 1877.07 2249.7674 1878.3377 2260.416 1883.662 2277.1495 1883.4085 2283.995 1883.4085 2287.0377 1883.4085 2288.5589 1882.1408 2290.5872 1880.366 2293.376 1875.5487 2297.4327 1871.7456 2297.9398 1868.196 2298.7005 1863.1254 2297.4327 1859.8294 2293.883 1853.9979 2287.5447 1853.7444 2267.2615 1849.1807 2254.5845 1844.8705 2242.1612 1834.2219 2225.6812 1833.7149 2218.3284 1833.4613 2215.2862 1834.4755 2213.765 1835.7432 2211.7366 1837.2644 2209.4547 1840.5603 2206.6658 1843.6028 2205.6517 1846.6453 2204.6375 1850.7019 2204.8909 1853.7444 2206.1588 1856.5333 2207.4263 1860.8435 2213.2579 1860.8435 2213.2579"/>
</clipPath>
<clipPath id="clip_47">
<path transform="matrix(.24,0,0,.24,0,0)" d="M0 0H3375V3406.25H0Z"/>
</clipPath>
<clipPath id="clip_48">
<path transform="matrix(.24,0,0,.24,0,0)" d="M0 0H3375V3375H0Z"/>
</clipPath>
<clipPath id="clip_49">
<path transform="matrix(.24,0,0,.24,0,0)" d="M0 0H3375V3375H0Z"/>
</clipPath>
<clipPath id="clip_50">
<path transform="matrix(.24,0,0,.24,0,0)" d="M1971.4349 2190.4136H2185.5723V2347.585H1971.4349Z"/>
</clipPath>
<clipPath id="clip_51">
<path transform="matrix(.24,0,0,.24,0,0)" d="M2017.277 2210.2154C2000.0364 2253.3172 1998.5151 2265.487 1997.7545 2275.375 1996.9939 2283.7418 1995.2191 2297.94 1998.008 2298.954 2001.3041 2299.9683 2015.2487 2276.6427 2021.3336 2267.0084 2025.8973 2259.6556 2027.165 2252.81 2032.2359 2246.9786 2037.56 2240.6402 2045.1663 2230.245 2052.7725 2230.245 2062.407 2230.4986 2075.591 2246.4715 2085.479 2257.8809 2097.1419 2271.3184 2105.5086 2296.672 2116.9178 2307.0675 2124.7777 2314.42 2133.9049 2322.0262 2141.511 2320.7586 2149.6243 2319.2374 2156.2164 2300.4754 2163.062 2297.1793 2167.6256 2295.1512 2172.95 2295.1512 2176.4996 2296.165 2179.2884 2297.1793 2181.8238 2299.9683 2183.345 2302.5037 2184.6129 2305.039 2185.3734 2308.5887 2184.8663 2311.3775 2184.3592 2314.1666 2182.838 2317.4625 2180.8096 2319.4908 2178.7813 2321.519 2175.4854 2323.294 2172.4429 2323.5474 2169.6539 2323.8009 2166.1043 2323.5474 2163.5689 2321.7728 2160.5267 2319.4908 2156.7235 2314.1666 2156.47 2310.3634 2156.2164 2306.3067 2158.7518 2300.4754 2161.7943 2298.1934 2165.0904 2295.6583 2171.4288 2294.644 2174.9783 2295.6583 2178.7813 2296.9259 2183.345 2301.2359 2184.3592 2305.2926 2185.8804 2310.3634 2182.3309 2318.7303 2179.7955 2325.0687 2177.26 2331.407 2174.9783 2339.5203 2168.8934 2343.3236 2161.287 2348.3944 2144.0465 2347.6336 2133.6514 2346.1124 2124.7777 2344.8448 2116.1573 2341.5487 2109.5653 2336.9849 2103.2269 2332.6749 2100.1844 2327.604 2094.0994 2319.9979 2083.704 2306.3067 2066.717 2259.402 2055.3079 2259.6556 2045.9269 2259.9093 2038.3207 2291.0946 2030.461 2303.2642 2024.6296 2312.3917 2021.0801 2323.8009 2013.2203 2326.5899 2004.6001 2329.3787 1986.0917 2322.5333 1979.4996 2316.702 1974.936 2312.6453 1974.1754 2306.5604 1972.9077 2300.2218 1971.1329 2292.1087 1971.8936 2281.7135 1972.6542 2271.3184 1973.4148 2259.402 1975.4431 2244.9503 1978.739 2232.7806 1981.7815 2221.1177 1987.3594 2206.4124 1991.6696 2199.567 1993.9514 2196.0174 1995.9797 2193.7354 1998.5151 2192.4678 2000.5435 2191.2 2002.5718 2190.6929 2005.1072 2190.9466 2007.896 2191.2 2011.9526 2192.7213 2013.981 2194.7496 2016.2628 2197.0316 2018.0376 2200.8345 2018.2911 2203.6236 2018.7982 2205.9053 2017.277 2210.2154 2017.277 2210.2154"/>
</clipPath>
<clipPath id="clip_52">
<path transform="matrix(.24,0,0,.24,0,0)" d="M0 0H3375V3406.25H0Z"/>
</clipPath>
<clipPath id="clip_53">
<path transform="matrix(.24,0,0,.24,0,0)" d="M0 0H3375V3375H0Z"/>
</clipPath>
<clipPath id="clip_54">
<path transform="matrix(.24,0,0,.24,0,0)" d="M0 0H3375V3375H0Z"/>
</clipPath>
<clipPath id="clip_55">
<path transform="matrix(.24,0,0,.24,0,0)" d="M2186.2923 2157.083H2336.3717V2416.3109H2186.2923Z"/>
</clipPath>
<clipPath id="clip_56">
<path transform="matrix(.24,0,0,.24,0,0)" d="M2218.3333 2171.6776C2219.601 2253.824 2223.6578 2209.2012 2229.996 2195.51 2234.0528 2186.8897 2237.856 2178.523 2244.7015 2176.2413 2253.5753 2173.4522 2270.5623 2177.2552 2280.4505 2186.8897 2297.691 2204.1304 2307.072 2261.9373 2314.1712 2294.6439 2320.0025 2320.7584 2323.045 2349.6617 2323.2984 2366.649 2323.552 2376.0299 2323.8057 2381.861 2321.5238 2388.4532 2319.4954 2394.538 2315.9459 2400.623 2310.368 2404.933 2304.0296 2410.2576 2292.3668 2416.0889 2283.2393 2415.8355 2273.8585 2415.3284 2262.9564 2407.215 2255.0965 2401.3839 2247.9974 2395.806 2241.9124 2389.2139 2237.6024 2382.1148 2233.2923 2375.5228 2230.7569 2367.663 2228.982 2360.057 2226.9537 2352.704 2224.6719 2344.591 2226.193 2336.7313 2227.7144 2328.1109 2232.5316 2320.505 2240.391 2310.8704 2255.0965 2292.6156 2302.0013 2249.7674 2317.467 2244.9503 2323.045 2243.1754 2326.848 2243.936 2329.8905 2245.9644 2332.9329 2247.9927 2335.9754 2253.317 2335.9754 2256.8665 2335.9754 2260.6697 2333.1866 2265.994 2330.3975 2268.0223 2327.355 2270.0506 2321.2703 2270.811 2317.974 2269.5435 2314.4246 2268.2757 2310.6217 2263.712 2309.6075 2260.1627 2308.8468 2256.613 2310.6217 2250.7816 2312.9034 2248.246 2314.6783 2245.9644 2317.7208 2244.443 2320.256 2243.936 2323.045 2243.6824 2326.3409 2243.936 2328.6229 2245.2037 2331.1583 2246.4715 2333.6937 2248.7532 2334.7078 2251.2886 2335.9754 2254.5848 2336.4825 2258.6414 2334.2008 2263.712 2326.848 2279.178 2258.646 2317.4625 2252.054 2337.7454 2248.758 2348.1407 2254.5894 2358.0286 2258.139 2365.1278 2260.928 2370.959 2264.4776 2375.0157 2269.2947 2378.8189 2275.126 2383.129 2286.0284 2390.228 2290.8455 2388.1998 2295.6627 2386.1715 2297.9447 2377.2977 2299.2122 2368.9307 2300.987 2353.7183 2295.1558 2322.2796 2290.3385 2303.2642 2286.2818 2287.7984 2279.6898 2277.403 2274.619 2262.4444 2268.5343 2244.443 2262.9564 2202.102 2257.3785 2202.102 2252.054 2202.3558 2249.0115 2247.9927 2242.166 2262.4444 2237.6024 2272.3323 2232.5316 2280.6993 2225.9395 2284.2489 2220.3616 2287.5447 2211.7413 2289.066 2206.417 2286.0235 2199.0645 2281.9669 2193.74 2267.5152 2190.6976 2253.5706 2185.6268 2232.2733 2185.8804 2181.5655 2189.937 2168.128 2191.4583 2163.5643 2193.233 2161.536 2195.7684 2159.761 2198.3038 2157.9864 2202.614 2156.9722 2205.6566 2157.4793 2208.9525 2157.7327 2212.7554 2159.761 2214.7838 2162.043 2216.812 2164.5784 2218.3333 2171.6776 2218.3333 2171.6776"/>
</clipPath>
<clipPath id="clip_57">
<path transform="matrix(.24,0,0,.24,0,0)" d="M0 0H3375V3406.25H0Z"/>
</clipPath>
<clipPath id="clip_58">
<path transform="matrix(.24,0,0,.24,0,0)" d="M0 0H3375V3375H0Z"/>
</clipPath>
<clipPath id="clip_59">
<path transform="matrix(.24,0,0,.24,0,0)" d="M0 0H3375V3375H0Z"/>
</clipPath>
<clipPath id="clip_60">
<path transform="matrix(.24,0,0,.24,0,0)" d="M2380.3529 2161.7974H2604.1207V2343.3155H2380.3529Z"/>
</clipPath>
<clipPath id="clip_61">
<path transform="matrix(.24,0,0,.24,0,0)" d="M2477.4503 2211.2296C2534.243 2210.7225 2519.5377 2210.2154 2512.4385 2208.187 2505.593 2205.9053 2499.508 2201.088 2492.409 2199.0596 2485.817 2197.0313 2478.4644 2196.5242 2471.619 2195.7637 2464.7733 2195.2567 2457.9278 2193.2283 2451.5894 2195.003 2444.9974 2196.7779 2438.1517 2201.3416 2433.0809 2206.4124 2428.2637 2211.483 2424.9678 2218.075 2421.9254 2225.6812 2418.122 2235.3157 2412.037 2250.7816 2414.319 2260.1627 2416.0938 2268.2757 2424.4608 2274.3607 2430.292 2280.1922 2435.6163 2285.77 2439.6729 2290.3338 2447.7862 2294.1368 2461.9844 2300.7288 2488.3524 2303.5177 2510.6639 2306.3067 2536.0179 2309.349 2578.6124 2304.5318 2592.3035 2310.8704 2598.3885 2313.6593 2601.4307 2317.9696 2602.952 2322.026 2603.966 2325.322 2603.459 2329.3787 2602.1915 2332.4212 2601.1773 2335.4637 2598.3885 2338.506 2595.5994 2340.2808 2592.8106 2342.0557 2588.754 2342.8162 2585.4578 2342.5628 2582.1619 2342.0557 2578.3587 2340.7879 2576.077 2337.999 2573.288 2334.9566 2570.499 2328.1109 2571.2598 2323.8009 2571.7667 2319.237 2576.584 2313.6593 2580.387 2311.6309 2583.4295 2309.8563 2587.486 2309.8563 2590.7823 2310.3634 2593.8248 2311.1239 2597.6278 2312.8988 2599.656 2315.9412 2601.9378 2319.237 2603.7127 2326.5897 2602.952 2330.6463 2602.1915 2334.1959 2599.656 2337.2384 2597.1207 2339.2667 2594.3319 2341.295 2592.0499 2341.802 2587.2327 2342.5628 2573.0345 2344.3375 2529.4259 2340.5345 2504.3255 2337.492 2483.028 2334.9566 2461.2237 2332.4212 2446.0115 2327.3504 2435.1092 2324.0543 2427.5032 2320.505 2419.1363 2314.6734 2410.2625 2308.335 2400.628 2297.9398 2394.7967 2290.3338 2390.233 2284.5023 2387.1905 2279.9385 2384.9085 2273.6 2382.373 2266.501 2380.5985 2258.1343 2381.1055 2249.7674 2381.6126 2240.1329 2386.1763 2227.7095 2389.4722 2218.3287 2392.2613 2210.2154 2395.05 2203.1163 2399.3604 2196.2708 2403.9239 2189.1717 2410.5159 2182.326 2416.0938 2177.0018 2420.9112 2172.6917 2424.714 2168.635 2430.292 2166.353 2436.377 2163.5643 2443.7296 2163.0572 2452.6036 2162.55 2464.7733 2162.2965 2483.028 2163.0572 2497.4798 2166.86 2511.4246 2170.6634 2528.158 2179.03 2537.539 2185.3685 2543.624 2189.1717 2547.427 2192.9747 2550.9766 2197.5384 2554.5262 2201.8487 2558.5828 2206.9195 2559.0899 2212.497 2559.597 2219.089 2556.0474 2229.7379 2551.737 2234.5552 2547.6805 2238.8653 2542.6099 2240.1329 2535.257 2241.654 2521.566 2244.443 2484.8028 2244.9503 2473.6473 2241.4007 2469.0836 2239.8795 2466.8016 2238.1046 2464.7733 2235.3157 2462.7449 2232.5269 2461.7308 2227.9632 2462.2379 2224.667 2462.4915 2221.371 2464.7733 2217.3145 2467.3087 2215.0325 2469.844 2212.7508 2477.4503 2211.2296 2477.4503 2211.2296"/>
</clipPath>
<clipPath id="clip_62">
<path transform="matrix(.24,0,0,.24,0,0)" d="M0 0H3375V3406.25H0Z"/>
</clipPath>
<clipPath id="clip_63">
<path transform="matrix(.24,0,0,.24,0,0)" d="M0 0H3375V3375H0Z"/>
</clipPath>
<clipPath id="clip_64">
<path transform="matrix(.24,0,0,.24,0,0)" d="M0 0H3375V3375H0Z"/>
</clipPath>
<clipPath id="clip_65">
<path transform="matrix(.24,0,0,.24,0,0)" d="M2651.9793 2151.116H2745.0369V2348.81H2651.9793Z"/>
</clipPath>
<clipPath id="clip_66">
<path transform="matrix(.24,0,0,.24,0,0)" d="M2682.5633 2164.5784C2681.549 2339.2667 2681.549 2340.0274 2680.535 2342.0557 2679.0137 2344.084 2676.4783 2347.1263 2673.6895 2348.1405 2670.3936 2349.1546 2664.562 2348.6475 2661.7733 2346.6192 2658.7308 2344.5909 2657.463 2341.5487 2656.1954 2335.9708 2652.392 2320.2513 2654.167 2266.7545 2656.7025 2241.654 2658.477 2224.667 2661.5196 2211.7366 2665.3228 2199.5667 2668.3653 2189.9322 2671.6612 2181.3118 2676.2249 2174.2127 2680.2816 2168.3814 2684.0845 2162.043 2689.6624 2160.0147 2695.7474 2157.7327 2706.903 2159.254 2712.2274 2163.0572 2717.298 2166.6068 2719.3265 2173.4522 2721.8619 2181.3118 2725.4114 2192.9747 2730.7359 2218.3287 2727.4398 2227.2025 2725.9185 2232.0196 2721.8619 2235.062 2718.0589 2236.0762 2714.2557 2237.0904 2708.1707 2235.569 2705.3819 2233.2874 2702.8465 2231.5125 2700.0577 2227.963 2700.5648 2224.667 2701.3253 2219.5963 2712.2274 2209.7083 2719.073 2206.6658 2724.651 2204.3839 2732.5106 2203.6234 2737.0743 2205.905 2740.8773 2207.68 2744.1734 2212.497 2744.9339 2216.3004 2745.441 2220.357 2742.9056 2226.1883 2740.6239 2228.977 2738.5955 2231.259 2735.046 2232.2733 2732.2569 2232.5267 2729.468 2232.7803 2725.9185 2232.0196 2723.383 2230.4984 2721.1014 2228.977 2718.8194 2226.1883 2717.8052 2223.6529 2716.791 2220.864 2716.284 2217.5679 2717.298 2214.5255 2718.566 2211.2296 2722.876 2206.412 2726.4256 2205.1446 2730.2288 2203.8768 2736.5672 2204.8909 2739.6097 2207.4263 2742.652 2209.7083 2744.9339 2215.7933 2744.9339 2219.5963 2745.1876 2222.3853 2743.4127 2225.6812 2741.638 2227.7095 2739.6097 2229.9913 2735.8065 2233.0338 2733.778 2232.2733 2731.243 2231.5125 2728.961 2220.357 2728.2005 2220.6104 2727.4398 2220.6104 2728.4539 2224.9207 2727.4398 2227.2025 2726.4256 2229.7379 2723.8902 2233.2874 2721.1014 2234.8087 2718.566 2236.3299 2714.2557 2236.5833 2711.4669 2236.3299 2708.9315 2235.8228 2706.903 2235.062 2705.3819 2233.2874 2703.3536 2231.259 2701.5789 2228.7237 2700.5648 2224.667 2698.0294 2216.3004 2701.0718 2185.115 2698.2828 2184.608 2696.2545 2184.1009 2691.4373 2196.5242 2688.9019 2204.3839 2685.3524 2214.779 2682.817 2226.442 2681.2957 2241.9078 2678.7603 2266.501 2687.127 2324.3079 2681.549 2339.0133 2679.5208 2344.3375 2676.9854 2346.8729 2673.6895 2348.1405 2670.3936 2349.4083 2664.562 2348.6475 2661.7733 2346.6192 2658.7308 2344.5909 2657.463 2341.802 2656.1954 2335.9708 2650.3638 2313.4058 2651.885 2185.622 2655.6883 2164.5784 2656.4488 2159.761 2656.9559 2157.9864 2658.9842 2155.7044 2661.0125 2153.4227 2664.562 2151.6478 2667.351 2151.3944 2670.3936 2150.8873 2674.1966 2151.6478 2676.732 2153.676 2679.5208 2155.7044 2682.5633 2164.5784 2682.5633 2164.5784"/>
</clipPath>
</defs>
<g clip-path="url(#clip_0)">
<path transform="matrix(.75,0,0,.75,0,0)" d="M0 0H1080V1080H0Z" fill="#ffffff"/>
</g>
<g clip-path="url(#clip_1)">
<path transform="matrix(.75,0,0,.75,0,0)" d="M0 0H1080V1080H0Z" fill="#ffffff"/>
</g>
<g clip-path="url(#clip_2)">
<g clip-path="url(#clip_3)">
<g clip-path="url(#clip_4)">
<g clip-path="url(#clip_5)">
<g clip-path="url(#clip_6)">
<path transform="matrix(.11133786,0,0,.11133786,197.6788,252.8714)" d="M0 0H256V2344H0Z" fill="#e7191f"/>
</g>
</g>
</g>
</g>
</g>
<g clip-path="url(#clip_7)">
<g clip-path="url(#clip_8)">
<g clip-path="url(#clip_9)">
<g clip-path="url(#clip_10)">
<g clip-path="url(#clip_11)">
<path transform="matrix(.08707192,0,0,.08707192,95.11856,314.38319)" d="M0 0H2082V256H0Z" fill="#e7191f"/>
</g>
</g>
</g>
</g>
</g>
<g clip-path="url(#clip_12)">
<g clip-path="url(#clip_13)">
<g clip-path="url(#clip_14)">
<g clip-path="url(#clip_15)">
<g clip-path="url(#clip_16)">
<path transform="matrix(.47152064,0,0,.47152064,291.59089,357.98957)" d="M0 0H279V256H0Z" fill="#e7191f"/>
</g>
</g>
</g>
</g>
</g>
<g clip-path="url(#clip_17)">
<g clip-path="url(#clip_18)">
<g clip-path="url(#clip_19)">
<g clip-path="url(#clip_20)">
<g clip-path="url(#clip_21)">
<path transform="matrix(.42964996,0,0,.42964996,397.56169,352.9955)" d="M0 0H256V298H0Z" fill="#e7191f"/>
</g>
</g>
</g>
</g>
</g>
<g clip-path="url(#clip_22)">
<g clip-path="url(#clip_23)">
<g clip-path="url(#clip_24)">
<g clip-path="url(#clip_25)">
<g clip-path="url(#clip_26)">
<path transform="matrix(.4767545,0,0,.4767545,510.23179,323.5186)" d="M0 0H256V309H0Z" fill="#e7191f"/>
</g>
</g>
</g>
</g>
</g>
<g clip-path="url(#clip_27)">
<g clip-path="url(#clip_28)">
<g clip-path="url(#clip_29)">
<g clip-path="url(#clip_30)">
<g clip-path="url(#clip_31)">
<path transform="matrix(.31022347,0,0,.31022347,591.9633,378.08747)" d="M0 0H256V344H0Z" fill="#e7191f"/>
</g>
</g>
</g>
</g>
</g>
<g clip-path="url(#clip_32)">
<g clip-path="url(#clip_33)">
<g clip-path="url(#clip_34)">
<g clip-path="url(#clip_35)">
<g clip-path="url(#clip_36)">
<path transform="matrix(.19490807,0,0,.19490807,314.3768,518.89028)" d="M0 0H365V256H0Z"/>
</g>
</g>
</g>
</g>
</g>
<g clip-path="url(#clip_37)">
<g clip-path="url(#clip_38)">
<g clip-path="url(#clip_39)">
<g clip-path="url(#clip_40)">
<g clip-path="url(#clip_41)">
<path transform="matrix(.16305724,0,0,.16305724,380.8243,521.2634)" d="M0 0H385V256H0Z"/>
</g>
</g>
</g>
</g>
</g>
<g clip-path="url(#clip_42)">
<g clip-path="url(#clip_43)">
<g clip-path="url(#clip_44)">
<g clip-path="url(#clip_45)">
<g clip-path="url(#clip_46)">
<path transform="matrix(.14689414,0,0,.14689414,437.65757,518.09927)" d="M0 0H256V292H0Z"/>
</g>
</g>
</g>
</g>
</g>
<g clip-path="url(#clip_47)">
<g clip-path="url(#clip_48)">
<g clip-path="url(#clip_49)">
<g clip-path="url(#clip_50)">
<g clip-path="url(#clip_51)">
<path transform="matrix(.16472109,0,0,.16472109,471.00303,523.3932)" d="M0 0H339V256H0Z"/>
</g>
</g>
</g>
</g>
</g>
<g clip-path="url(#clip_52)">
<g clip-path="url(#clip_53)">
<g clip-path="url(#clip_54)">
<g clip-path="url(#clip_55)">
<g clip-path="url(#clip_56)">
<path transform="matrix(.15592647,0,0,.15592647,523.1509,515.361)" d="M0 0H256V429H0Z"/>
</g>
</g>
</g>
</g>
</g>
<g clip-path="url(#clip_57)">
<g clip-path="url(#clip_58)">
<g clip-path="url(#clip_59)">
<g clip-path="url(#clip_60)">
<g clip-path="url(#clip_61)">
<path transform="matrix(.18777728,0,0,.18777728,569.0313,516.578)" d="M0 0H309V256H0Z"/>
</g>
</g>
</g>
</g>
</g>
<g clip-path="url(#clip_62)">
<g clip-path="url(#clip_63)">
<g clip-path="url(#clip_64)">
<g clip-path="url(#clip_65)">
<g clip-path="url(#clip_66)">
<path transform="matrix(.10292097,0,0,.10292097,634.93118,513.90066)" d="M0 0H256V506H0Z"/>
</g>
</g>
</g>
</g>
</g>
</svg>
